ISO-10303-21;
HEADER;
FILE_DESCRIPTION(('FreeCAD Model'),'2;1');
FILE_NAME('Open CASCADE Shape Model','2025-03-28T18:38:52',('Author'),(
    ''),'Open CASCADE STEP processor 7.8','FreeCAD','Unknown');
FILE_SCHEMA(('AUTOMOTIVE_DESIGN { 1 0 10303 214 1 1 1 1 }'));
ENDSEC;
DATA;
#1 = APPLICATION_PROTOCOL_DEFINITION('international standard',
  'automotive_design',2000,#2);
#2 = APPLICATION_CONTEXT(
  'core data for automotive mechanical design processes');
#3 = SHAPE_DEFINITION_REPRESENTATION(#4,#10);
#4 = PRODUCT_DEFINITION_SHAPE('','',#5);
#5 = PRODUCT_DEFINITION('design','',#6,#9);
#6 = PRODUCT_DEFINITION_FORMATION('','',#7);
#7 = PRODUCT('Reader mount','Reader mount','',(#8));
#8 = PRODUCT_CONTEXT('',#2,'mechanical');
#9 = PRODUCT_DEFINITION_CONTEXT('part definition',#2,'design');
#10 = ADVANCED_BREP_SHAPE_REPRESENTATION('',(#11,#15),#1027);
#11 = AXIS2_PLACEMENT_3D('',#12,#13,#14);
#12 = CARTESIAN_POINT('',(0.,0.,0.));
#13 = DIRECTION('',(0.,0.,1.));
#14 = DIRECTION('',(1.,0.,-0.));
#15 = MANIFOLD_SOLID_BREP('',#16);
#16 = CLOSED_SHELL('',(#17,#65,#96,#120,#160,#200,#305,#394,#450,#478,
    #502,#519,#544,#577,#589,#614,#645,#669,#693,#710,#727,#751,#768,
    #808,#841,#858,#893,#917,#942,#954,#963,#986,#998,#1015));
#17 = ADVANCED_FACE('',(#18),#60,.T.);
#18 = FACE_BOUND('',#19,.T.);
#19 = EDGE_LOOP('',(#20,#30,#38,#46,#54));
#20 = ORIENTED_EDGE('',*,*,#21,.F.);
#21 = EDGE_CURVE('',#22,#24,#26,.T.);
#22 = VERTEX_POINT('',#23);
#23 = CARTESIAN_POINT('',(-10.5,-2.5,-12.));
#24 = VERTEX_POINT('',#25);
#25 = CARTESIAN_POINT('',(-36.5,-2.5,-12.));
#26 = LINE('',#27,#28);
#27 = CARTESIAN_POINT('',(-3.5,-2.5,-12.));
#28 = VECTOR('',#29,1.);
#29 = DIRECTION('',(-1.,-3.284293275761E-47,-2.22044604925E-16));
#30 = ORIENTED_EDGE('',*,*,#31,.F.);
#31 = EDGE_CURVE('',#32,#22,#34,.T.);
#32 = VERTEX_POINT('',#33);
#33 = CARTESIAN_POINT('',(-3.5,-4.8,-12.));
#34 = LINE('',#35,#36);
#35 = CARTESIAN_POINT('',(-12.98158516523,-1.684622017137,-12.));
#36 = VECTOR('',#37,1.);
#37 = DIRECTION('',(-0.95003174904,0.31215328897,-4.912108024894E-16));
#38 = ORIENTED_EDGE('',*,*,#39,.T.);
#39 = EDGE_CURVE('',#32,#40,#42,.T.);
#40 = VERTEX_POINT('',#41);
#41 = CARTESIAN_POINT('',(-3.5,-9.,-12.));
#42 = LINE('',#43,#44);
#43 = CARTESIAN_POINT('',(-3.5,-1.,-12.));
#44 = VECTOR('',#45,1.);
#45 = DIRECTION('',(9.860761315263E-32,-1.,-2.22044604925E-16));
#46 = ORIENTED_EDGE('',*,*,#47,.F.);
#47 = EDGE_CURVE('',#48,#40,#50,.T.);
#48 = VERTEX_POINT('',#49);
#49 = CARTESIAN_POINT('',(-36.5,-9.,-12.));
#50 = LINE('',#51,#52);
#51 = CARTESIAN_POINT('',(-36.5,-9.,-12.));
#52 = VECTOR('',#53,1.);
#53 = DIRECTION('',(1.,0.,4.440892098501E-16));
#54 = ORIENTED_EDGE('',*,*,#55,.F.);
#55 = EDGE_CURVE('',#24,#48,#56,.T.);
#56 = LINE('',#57,#58);
#57 = CARTESIAN_POINT('',(-36.5,-1.,-12.));
#58 = VECTOR('',#59,1.);
#59 = DIRECTION('',(9.860761315263E-32,-1.,-2.22044604925E-16));
#60 = PLANE('',#61);
#61 = AXIS2_PLACEMENT_3D('',#62,#63,#64);
#62 = CARTESIAN_POINT('',(-19.31034482758,-0.775862068966,-12.));
#63 = DIRECTION('',(4.440892098501E-16,-2.22044604925E-16,-1.));
#64 = DIRECTION('',(-9.860761315263E-32,-1.,2.22044604925E-16));
#65 = ADVANCED_FACE('',(#66),#91,.F.);
#66 = FACE_BOUND('',#67,.F.);
#67 = EDGE_LOOP('',(#68,#69,#77,#85));
#68 = ORIENTED_EDGE('',*,*,#21,.F.);
#69 = ORIENTED_EDGE('',*,*,#70,.F.);
#70 = EDGE_CURVE('',#71,#22,#73,.T.);
#71 = VERTEX_POINT('',#72);
#72 = CARTESIAN_POINT('',(-10.5,-2.5,-37.));
#73 = LINE('',#74,#75);
#74 = CARTESIAN_POINT('',(-10.5,-2.5,-37.));
#75 = VECTOR('',#76,1.);
#76 = DIRECTION('',(-2.22044604925E-16,-1.479114197289E-31,1.));
#77 = ORIENTED_EDGE('',*,*,#78,.T.);
#78 = EDGE_CURVE('',#71,#79,#81,.T.);
#79 = VERTEX_POINT('',#80);
#80 = CARTESIAN_POINT('',(-36.5,-2.5,-37.));
#81 = LINE('',#82,#83);
#82 = CARTESIAN_POINT('',(-3.5,-2.5,-37.));
#83 = VECTOR('',#84,1.);
#84 = DIRECTION('',(-1.,-3.284293275761E-47,-2.22044604925E-16));
#85 = ORIENTED_EDGE('',*,*,#86,.T.);
#86 = EDGE_CURVE('',#79,#24,#87,.T.);
#87 = LINE('',#88,#89);
#88 = CARTESIAN_POINT('',(-36.5,-2.5,-18.5));
#89 = VECTOR('',#90,1.);
#90 = DIRECTION('',(-4.440892098501E-16,-1.479114197289E-31,1.));
#91 = PLANE('',#92);
#92 = AXIS2_PLACEMENT_3D('',#93,#94,#95);
#93 = CARTESIAN_POINT('',(-3.5,-2.5,-37.));
#94 = DIRECTION('',(-6.568586551523E-47,1.,1.479114197289E-31));
#95 = DIRECTION('',(-2.22044604925E-16,-1.479114197289E-31,1.));
#96 = ADVANCED_FACE('',(#97),#115,.T.);
#97 = FACE_BOUND('',#98,.T.);
#98 = EDGE_LOOP('',(#99,#107,#113,#114));
#99 = ORIENTED_EDGE('',*,*,#100,.F.);
#100 = EDGE_CURVE('',#101,#71,#103,.T.);
#101 = VERTEX_POINT('',#102);
#102 = CARTESIAN_POINT('',(-3.5,-4.8,-37.));
#103 = LINE('',#104,#105);
#104 = CARTESIAN_POINT('',(-8.103925861788,-3.287281502555,-37.));
#105 = VECTOR('',#106,1.);
#106 = DIRECTION('',(-0.95003174904,0.31215328897,-3.594755107155E-16));
#107 = ORIENTED_EDGE('',*,*,#108,.T.);
#108 = EDGE_CURVE('',#101,#32,#109,.T.);
#109 = LINE('',#110,#111);
#110 = CARTESIAN_POINT('',(-3.5,-4.8,-37.));
#111 = VECTOR('',#112,1.);
#112 = DIRECTION('',(-2.22044604925E-16,-1.479114197289E-31,1.));
#113 = ORIENTED_EDGE('',*,*,#31,.T.);
#114 = ORIENTED_EDGE('',*,*,#70,.F.);
#115 = PLANE('',#116);
#116 = AXIS2_PLACEMENT_3D('',#117,#118,#119);
#117 = CARTESIAN_POINT('',(-7.,-3.65,-37.));
#118 = DIRECTION('',(-0.31215328897,-0.95003174904,-1.345315575945E-16)
  );
#119 = DIRECTION('',(-2.424031187781E-16,-6.196069433536E-17,1.));
#120 = ADVANCED_FACE('',(#121),#155,.T.);
#121 = FACE_BOUND('',#122,.T.);
#122 = EDGE_LOOP('',(#123,#133,#141,#147,#148,#149));
#123 = ORIENTED_EDGE('',*,*,#124,.F.);
#124 = EDGE_CURVE('',#125,#127,#129,.T.);
#125 = VERTEX_POINT('',#126);
#126 = CARTESIAN_POINT('',(-36.5,-2.6645352591E-15,12.));
#127 = VERTEX_POINT('',#128);
#128 = CARTESIAN_POINT('',(-36.5,-9.,12.));
#129 = LINE('',#130,#131);
#130 = CARTESIAN_POINT('',(-36.5,-2.6645352591E-15,12.));
#131 = VECTOR('',#132,1.);
#132 = DIRECTION('',(9.860761315263E-32,-1.,-2.22044604925E-16));
#133 = ORIENTED_EDGE('',*,*,#134,.T.);
#134 = EDGE_CURVE('',#125,#135,#137,.T.);
#135 = VERTEX_POINT('',#136);
#136 = CARTESIAN_POINT('',(-36.5,-2.6645352591E-15,-37.));
#137 = LINE('',#138,#139);
#138 = CARTESIAN_POINT('',(-36.5,-2.6645352591E-15,12.));
#139 = VECTOR('',#140,1.);
#140 = DIRECTION('',(4.440892098501E-16,2.22044604925E-16,-1.));
#141 = ORIENTED_EDGE('',*,*,#142,.F.);
#142 = EDGE_CURVE('',#79,#135,#143,.T.);
#143 = LINE('',#144,#145);
#144 = CARTESIAN_POINT('',(-36.5,-1.676470588235,-37.));
#145 = VECTOR('',#146,1.);
#146 = DIRECTION('',(-3.008445307281E-32,1.,6.774416582418E-17));
#147 = ORIENTED_EDGE('',*,*,#86,.T.);
#148 = ORIENTED_EDGE('',*,*,#55,.T.);
#149 = ORIENTED_EDGE('',*,*,#150,.F.);
#150 = EDGE_CURVE('',#127,#48,#151,.T.);
#151 = LINE('',#152,#153);
#152 = CARTESIAN_POINT('',(-36.5,-9.,12.));
#153 = VECTOR('',#154,1.);
#154 = DIRECTION('',(4.440892098501E-16,2.22044604925E-16,-1.));
#155 = PLANE('',#156);
#156 = AXIS2_PLACEMENT_3D('',#157,#158,#159);
#157 = CARTESIAN_POINT('',(-36.5,-3.099137931034,-11.09913793103));
#158 = DIRECTION('',(-1.,2.918593329138E-15,-1.330537744296E-15));
#159 = DIRECTION('',(-2.918593329138E-15,-1.,2.22044604925E-16));
#160 = ADVANCED_FACE('',(#161),#195,.T.);
#161 = FACE_BOUND('',#162,.T.);
#162 = EDGE_LOOP('',(#163,#164,#165,#173,#181,#189));
#163 = ORIENTED_EDGE('',*,*,#39,.F.);
#164 = ORIENTED_EDGE('',*,*,#108,.F.);
#165 = ORIENTED_EDGE('',*,*,#166,.F.);
#166 = EDGE_CURVE('',#167,#101,#169,.T.);
#167 = VERTEX_POINT('',#168);
#168 = CARTESIAN_POINT('',(-3.5,-7.5,-37.));
#169 = LINE('',#170,#171);
#170 = CARTESIAN_POINT('',(-3.5,-9.,-37.));
#171 = VECTOR('',#172,1.);
#172 = DIRECTION('',(-1.094764425254E-46,1.,2.465190328816E-31));
#173 = ORIENTED_EDGE('',*,*,#174,.F.);
#174 = EDGE_CURVE('',#175,#167,#177,.T.);
#175 = VERTEX_POINT('',#176);
#176 = CARTESIAN_POINT('',(-3.5,-7.5,-17.5));
#177 = LINE('',#178,#179);
#178 = CARTESIAN_POINT('',(-3.5,-7.5,-17.5));
#179 = VECTOR('',#180,1.);
#180 = DIRECTION('',(2.22044604925E-16,1.479114197289E-31,-1.));
#181 = ORIENTED_EDGE('',*,*,#182,.F.);
#182 = EDGE_CURVE('',#183,#175,#185,.T.);
#183 = VERTEX_POINT('',#184);
#184 = CARTESIAN_POINT('',(-3.5,-9.,-17.5));
#185 = LINE('',#186,#187);
#186 = CARTESIAN_POINT('',(-3.5,-9.,-17.5));
#187 = VECTOR('',#188,1.);
#188 = DIRECTION('',(0.,1.,1.479114197289E-31));
#189 = ORIENTED_EDGE('',*,*,#190,.F.);
#190 = EDGE_CURVE('',#40,#183,#191,.T.);
#191 = LINE('',#192,#193);
#192 = CARTESIAN_POINT('',(-3.5,-9.,-29.));
#193 = VECTOR('',#194,1.);
#194 = DIRECTION('',(4.440892098501E-16,2.465190328816E-31,-1.));
#195 = PLANE('',#196);
#196 = AXIS2_PLACEMENT_3D('',#197,#198,#199);
#197 = CARTESIAN_POINT('',(-3.5,0.78,-27.22));
#198 = DIRECTION('',(-1.,0.,-4.440892098501E-16));
#199 = DIRECTION('',(-9.860761315263E-32,-1.,2.22044604925E-16));
#200 = ADVANCED_FACE('',(#201,#212,#255,#266),#300,.T.);
#201 = FACE_BOUND('',#202,.T.);
#202 = EDGE_LOOP('',(#203));
#203 = ORIENTED_EDGE('',*,*,#204,.F.);
#204 = EDGE_CURVE('',#205,#205,#207,.T.);
#205 = VERTEX_POINT('',#206);
#206 = CARTESIAN_POINT('',(-27.,-9.,2.));
#207 = CIRCLE('',#208,6.5);
#208 = AXIS2_PLACEMENT_3D('',#209,#210,#211);
#209 = CARTESIAN_POINT('',(-20.5,-9.,2.));
#210 = DIRECTION('',(3.14497615534E-32,-1.,-7.081856720638E-17));
#211 = DIRECTION('',(-1.,8.985646158113E-33,-5.709718412358E-16));
#212 = FACE_BOUND('',#213,.T.);
#213 = EDGE_LOOP('',(#214,#224,#230,#231,#232,#233,#241,#249));
#214 = ORIENTED_EDGE('',*,*,#215,.T.);
#215 = EDGE_CURVE('',#216,#218,#220,.T.);
#216 = VERTEX_POINT('',#217);
#217 = CARTESIAN_POINT('',(24.5,-9.,-37.));
#218 = VERTEX_POINT('',#219);
#219 = CARTESIAN_POINT('',(24.5,-9.,12.));
#220 = LINE('',#221,#222);
#221 = CARTESIAN_POINT('',(24.5,-9.,-29.));
#222 = VECTOR('',#223,1.);
#223 = DIRECTION('',(-4.440892098501E-16,-2.22044604925E-16,1.));
#224 = ORIENTED_EDGE('',*,*,#225,.T.);
#225 = EDGE_CURVE('',#218,#127,#226,.T.);
#226 = LINE('',#227,#228);
#227 = CARTESIAN_POINT('',(24.5,-9.,12.));
#228 = VECTOR('',#229,1.);
#229 = DIRECTION('',(-1.,0.,-4.440892098501E-16));
#230 = ORIENTED_EDGE('',*,*,#150,.T.);
#231 = ORIENTED_EDGE('',*,*,#47,.T.);
#232 = ORIENTED_EDGE('',*,*,#190,.T.);
#233 = ORIENTED_EDGE('',*,*,#234,.T.);
#234 = EDGE_CURVE('',#183,#235,#237,.T.);
#235 = VERTEX_POINT('',#236);
#236 = CARTESIAN_POINT('',(-36.5,-9.,-17.5));
#237 = LINE('',#238,#239);
#238 = CARTESIAN_POINT('',(-3.5,-9.,-17.5));
#239 = VECTOR('',#240,1.);
#240 = DIRECTION('',(-1.,-3.284293275761E-47,-2.22044604925E-16));
#241 = ORIENTED_EDGE('',*,*,#242,.F.);
#242 = EDGE_CURVE('',#243,#235,#245,.T.);
#243 = VERTEX_POINT('',#244);
#244 = CARTESIAN_POINT('',(-36.5,-9.,-37.));
#245 = LINE('',#246,#247);
#246 = CARTESIAN_POINT('',(-36.5,-9.,-18.5));
#247 = VECTOR('',#248,1.);
#248 = DIRECTION('',(-4.440892098501E-16,-1.479114197289E-31,1.));
#249 = ORIENTED_EDGE('',*,*,#250,.F.);
#250 = EDGE_CURVE('',#216,#243,#251,.T.);
#251 = LINE('',#252,#253);
#252 = CARTESIAN_POINT('',(-3.5,-9.,-37.));
#253 = VECTOR('',#254,1.);
#254 = DIRECTION('',(-1.,-3.284293275761E-47,-2.22044604925E-16));
#255 = FACE_BOUND('',#256,.T.);
#256 = EDGE_LOOP('',(#257));
#257 = ORIENTED_EDGE('',*,*,#258,.F.);
#258 = EDGE_CURVE('',#259,#259,#261,.T.);
#259 = VERTEX_POINT('',#260);
#260 = CARTESIAN_POINT('',(4.5,-9.,2.22044604925E-16));
#261 = CIRCLE('',#262,9.5);
#262 = AXIS2_PLACEMENT_3D('',#263,#264,#265);
#263 = CARTESIAN_POINT('',(14.,-9.,3.552713678801E-15));
#264 = DIRECTION('',(9.860761315263E-32,-1.,-2.22044604925E-16));
#265 = DIRECTION('',(-1.,0.,-4.440892098501E-16));
#266 = FACE_BOUND('',#267,.T.);
#267 = EDGE_LOOP('',(#268,#278,#286,#294));
#268 = ORIENTED_EDGE('',*,*,#269,.F.);
#269 = EDGE_CURVE('',#270,#272,#274,.T.);
#270 = VERTEX_POINT('',#271);
#271 = CARTESIAN_POINT('',(3.,-9.,-3.25));
#272 = VERTEX_POINT('',#273);
#273 = CARTESIAN_POINT('',(3.,-9.,7.25));
#274 = LINE('',#275,#276);
#275 = CARTESIAN_POINT('',(3.,-9.,-3.25));
#276 = VECTOR('',#277,1.);
#277 = DIRECTION('',(-4.440892098501E-16,-2.22044604925E-16,1.));
#278 = ORIENTED_EDGE('',*,*,#279,.F.);
#279 = EDGE_CURVE('',#280,#270,#282,.T.);
#280 = VERTEX_POINT('',#281);
#281 = CARTESIAN_POINT('',(-3.,-9.,-3.25));
#282 = LINE('',#283,#284);
#283 = CARTESIAN_POINT('',(-3.,-9.,-3.25));
#284 = VECTOR('',#285,1.);
#285 = DIRECTION('',(1.,0.,4.440892098501E-16));
#286 = ORIENTED_EDGE('',*,*,#287,.F.);
#287 = EDGE_CURVE('',#288,#280,#290,.T.);
#288 = VERTEX_POINT('',#289);
#289 = CARTESIAN_POINT('',(-3.,-9.,7.25));
#290 = LINE('',#291,#292);
#291 = CARTESIAN_POINT('',(-3.,-9.,7.25));
#292 = VECTOR('',#293,1.);
#293 = DIRECTION('',(4.440892098501E-16,2.22044604925E-16,-1.));
#294 = ORIENTED_EDGE('',*,*,#295,.F.);
#295 = EDGE_CURVE('',#272,#288,#296,.T.);
#296 = LINE('',#297,#298);
#297 = CARTESIAN_POINT('',(3.,-9.,7.25));
#298 = VECTOR('',#299,1.);
#299 = DIRECTION('',(-1.,0.,-4.440892098501E-16));
#300 = PLANE('',#301);
#301 = AXIS2_PLACEMENT_3D('',#302,#303,#304);
#302 = CARTESIAN_POINT('',(-8.596153846154,-9.,-13.01923076923));
#303 = DIRECTION('',(3.14497615534E-32,-1.,-7.081856720638E-17));
#304 = DIRECTION('',(4.440892098501E-16,7.081856720638E-17,-1.));
#305 = ADVANCED_FACE('',(#306),#389,.T.);
#306 = FACE_BOUND('',#307,.T.);
#307 = EDGE_LOOP('',(#308,#309,#310,#311,#312,#320,#328,#336,#344,#352,
    #360,#368,#374,#375,#383));
#308 = ORIENTED_EDGE('',*,*,#166,.T.);
#309 = ORIENTED_EDGE('',*,*,#100,.T.);
#310 = ORIENTED_EDGE('',*,*,#78,.T.);
#311 = ORIENTED_EDGE('',*,*,#142,.T.);
#312 = ORIENTED_EDGE('',*,*,#313,.T.);
#313 = EDGE_CURVE('',#135,#314,#316,.T.);
#314 = VERTEX_POINT('',#315);
#315 = CARTESIAN_POINT('',(-18.5,-2.6645352591E-15,-37.));
#316 = LINE('',#317,#318);
#317 = CARTESIAN_POINT('',(-21.59663865546,-2.6645352591E-15,-37.));
#318 = VECTOR('',#319,1.);
#319 = DIRECTION('',(1.,0.,4.440892098501E-16));
#320 = ORIENTED_EDGE('',*,*,#321,.T.);
#321 = EDGE_CURVE('',#314,#322,#324,.T.);
#322 = VERTEX_POINT('',#323);
#323 = CARTESIAN_POINT('',(-18.5,16.,-37.));
#324 = LINE('',#325,#326);
#325 = CARTESIAN_POINT('',(-18.5,-0.676470588235,-37.));
#326 = VECTOR('',#327,1.);
#327 = DIRECTION('',(-3.008445307281E-32,1.,6.774416582418E-17));
#328 = ORIENTED_EDGE('',*,*,#329,.T.);
#329 = EDGE_CURVE('',#322,#330,#332,.T.);
#330 = VERTEX_POINT('',#331);
#331 = CARTESIAN_POINT('',(-16.5,16.,-37.));
#332 = LINE('',#333,#334);
#333 = CARTESIAN_POINT('',(-12.59663865546,16.,-37.));
#334 = VECTOR('',#335,1.);
#335 = DIRECTION('',(1.,0.,4.440892098501E-16));
#336 = ORIENTED_EDGE('',*,*,#337,.T.);
#337 = EDGE_CURVE('',#330,#338,#340,.T.);
#338 = VERTEX_POINT('',#339);
#339 = CARTESIAN_POINT('',(-16.5,-2.,-37.));
#340 = LINE('',#341,#342);
#341 = CARTESIAN_POINT('',(-16.5,7.323529411765,-37.));
#342 = VECTOR('',#343,1.);
#343 = DIRECTION('',(3.008445307281E-32,-1.,-6.774416582418E-17));
#344 = ORIENTED_EDGE('',*,*,#345,.F.);
#345 = EDGE_CURVE('',#346,#338,#348,.T.);
#346 = VERTEX_POINT('',#347);
#347 = CARTESIAN_POINT('',(-3.5,-2.,-37.));
#348 = LINE('',#349,#350);
#349 = CARTESIAN_POINT('',(-3.5,-2.,-37.));
#350 = VECTOR('',#351,1.);
#351 = DIRECTION('',(-1.,-3.284293275761E-47,-2.22044604925E-16));
#352 = ORIENTED_EDGE('',*,*,#353,.T.);
#353 = EDGE_CURVE('',#346,#354,#356,.T.);
#354 = VERTEX_POINT('',#355);
#355 = CARTESIAN_POINT('',(-3.5,16.,-37.));
#356 = LINE('',#357,#358);
#357 = CARTESIAN_POINT('',(-3.5,-9.,-37.));
#358 = VECTOR('',#359,1.);
#359 = DIRECTION('',(-1.094764425254E-46,1.,2.465190328816E-31));
#360 = ORIENTED_EDGE('',*,*,#361,.T.);
#361 = EDGE_CURVE('',#354,#362,#364,.T.);
#362 = VERTEX_POINT('',#363);
#363 = CARTESIAN_POINT('',(24.5,16.,-37.));
#364 = LINE('',#365,#366);
#365 = CARTESIAN_POINT('',(-3.5,16.,-37.));
#366 = VECTOR('',#367,1.);
#367 = DIRECTION('',(1.,0.,4.440892098501E-16));
#368 = ORIENTED_EDGE('',*,*,#369,.T.);
#369 = EDGE_CURVE('',#362,#216,#370,.T.);
#370 = LINE('',#371,#372);
#371 = CARTESIAN_POINT('',(24.5,16.,-37.));
#372 = VECTOR('',#373,1.);
#373 = DIRECTION('',(1.094764425254E-46,-1.,-2.465190328816E-31));
#374 = ORIENTED_EDGE('',*,*,#250,.T.);
#375 = ORIENTED_EDGE('',*,*,#376,.F.);
#376 = EDGE_CURVE('',#377,#243,#379,.T.);
#377 = VERTEX_POINT('',#378);
#378 = CARTESIAN_POINT('',(-36.5,-7.5,-37.));
#379 = LINE('',#380,#381);
#380 = CARTESIAN_POINT('',(-36.5,-6.,-37.));
#381 = VECTOR('',#382,1.);
#382 = DIRECTION('',(-6.518225175814E-16,-1.,-2.894673467952E-31));
#383 = ORIENTED_EDGE('',*,*,#384,.F.);
#384 = EDGE_CURVE('',#167,#377,#385,.T.);
#385 = LINE('',#386,#387);
#386 = CARTESIAN_POINT('',(-3.5,-7.5,-37.));
#387 = VECTOR('',#388,1.);
#388 = DIRECTION('',(-1.,-3.284293275761E-47,-2.22044604925E-16));
#389 = PLANE('',#390);
#390 = AXIS2_PLACEMENT_3D('',#391,#392,#393);
#391 = CARTESIAN_POINT('',(-8.244525547445,7.299270072994E-03,-37.));
#392 = DIRECTION('',(4.440892098501E-16,1.999765507975E-16,-1.));
#393 = DIRECTION('',(8.880742843221E-32,-1.,-1.999765507975E-16));
#394 = ADVANCED_FACE('',(#395),#445,.T.);
#395 = FACE_BOUND('',#396,.T.);
#396 = EDGE_LOOP('',(#397,#405,#413,#421,#429,#437,#443,#444));
#397 = ORIENTED_EDGE('',*,*,#398,.F.);
#398 = EDGE_CURVE('',#399,#218,#401,.T.);
#399 = VERTEX_POINT('',#400);
#400 = CARTESIAN_POINT('',(24.5,-2.6645352591E-15,12.));
#401 = LINE('',#402,#403);
#402 = CARTESIAN_POINT('',(24.5,-2.6645352591E-15,12.));
#403 = VECTOR('',#404,1.);
#404 = DIRECTION('',(9.860761315263E-32,-1.,-2.22044604925E-16));
#405 = ORIENTED_EDGE('',*,*,#406,.T.);
#406 = EDGE_CURVE('',#399,#407,#409,.T.);
#407 = VERTEX_POINT('',#408);
#408 = CARTESIAN_POINT('',(-16.5,3.879403123714E-15,12.));
#409 = LINE('',#410,#411);
#410 = CARTESIAN_POINT('',(24.5,-2.6645352591E-15,12.));
#411 = VECTOR('',#412,1.);
#412 = DIRECTION('',(-1.,0.,-4.440892098501E-16));
#413 = ORIENTED_EDGE('',*,*,#414,.T.);
#414 = EDGE_CURVE('',#407,#415,#417,.T.);
#415 = VERTEX_POINT('',#416);
#416 = CARTESIAN_POINT('',(-16.5,16.,12.));
#417 = LINE('',#418,#419);
#418 = CARTESIAN_POINT('',(-16.5,3.879403123714E-15,12.));
#419 = VECTOR('',#420,1.);
#420 = DIRECTION('',(9.860761315263E-32,1.,-2.22044604925E-16));
#421 = ORIENTED_EDGE('',*,*,#422,.T.);
#422 = EDGE_CURVE('',#415,#423,#425,.T.);
#423 = VERTEX_POINT('',#424);
#424 = CARTESIAN_POINT('',(-18.5,16.,12.));
#425 = LINE('',#426,#427);
#426 = CARTESIAN_POINT('',(-11.,16.,12.));
#427 = VECTOR('',#428,1.);
#428 = DIRECTION('',(-1.,0.,-4.440892098501E-16));
#429 = ORIENTED_EDGE('',*,*,#430,.F.);
#430 = EDGE_CURVE('',#431,#423,#433,.T.);
#431 = VERTEX_POINT('',#432);
#432 = CARTESIAN_POINT('',(-18.5,3.879403123714E-15,12.));
#433 = LINE('',#434,#435);
#434 = CARTESIAN_POINT('',(-18.5,3.879403123714E-15,12.));
#435 = VECTOR('',#436,1.);
#436 = DIRECTION('',(9.860761315263E-32,1.,-2.22044604925E-16));
#437 = ORIENTED_EDGE('',*,*,#438,.T.);
#438 = EDGE_CURVE('',#431,#125,#439,.T.);
#439 = LINE('',#440,#441);
#440 = CARTESIAN_POINT('',(24.5,-2.6645352591E-15,12.));
#441 = VECTOR('',#442,1.);
#442 = DIRECTION('',(-1.,0.,-4.440892098501E-16));
#443 = ORIENTED_EDGE('',*,*,#124,.T.);
#444 = ORIENTED_EDGE('',*,*,#225,.F.);
#445 = PLANE('',#446);
#446 = AXIS2_PLACEMENT_3D('',#447,#448,#449);
#447 = CARTESIAN_POINT('',(-8.139534883721,-1.988372093023,12.));
#448 = DIRECTION('',(-4.440892098501E-16,-2.718282404813E-16,1.));
#449 = DIRECTION('',(-1.207159885303E-31,1.,2.718282404813E-16));
#450 = ADVANCED_FACE('',(#451,#462),#473,.T.);
#451 = FACE_BOUND('',#452,.T.);
#452 = EDGE_LOOP('',(#453,#459,#460,#461));
#453 = ORIENTED_EDGE('',*,*,#454,.T.);
#454 = EDGE_CURVE('',#431,#314,#455,.T.);
#455 = LINE('',#456,#457);
#456 = CARTESIAN_POINT('',(-18.5,-2.6645352591E-15,-12.));
#457 = VECTOR('',#458,1.);
#458 = DIRECTION('',(4.440892098501E-16,9.860761315263E-32,-1.));
#459 = ORIENTED_EDGE('',*,*,#313,.F.);
#460 = ORIENTED_EDGE('',*,*,#134,.F.);
#461 = ORIENTED_EDGE('',*,*,#438,.F.);
#462 = FACE_BOUND('',#463,.T.);
#463 = EDGE_LOOP('',(#464));
#464 = ORIENTED_EDGE('',*,*,#465,.T.);
#465 = EDGE_CURVE('',#466,#466,#468,.T.);
#466 = VERTEX_POINT('',#467);
#467 = CARTESIAN_POINT('',(-21.775,4.440892098501E-16,2.));
#468 = CIRCLE('',#469,1.275);
#469 = AXIS2_PLACEMENT_3D('',#470,#471,#472);
#470 = CARTESIAN_POINT('',(-20.5,2.22044604925E-15,2.));
#471 = DIRECTION('',(9.860761315263E-32,-1.,-2.22044604925E-16));
#472 = DIRECTION('',(-1.,0.,-4.440892098501E-16));
#473 = PLANE('',#474);
#474 = AXIS2_PLACEMENT_3D('',#475,#476,#477);
#475 = CARTESIAN_POINT('',(-27.5,-1.492486593522E-15,-12.5));
#476 = DIRECTION('',(9.860761315263E-32,1.,-2.22044604925E-16));
#477 = DIRECTION('',(1.,0.,4.440892098501E-16));
#478 = ADVANCED_FACE('',(#479),#497,.F.);
#479 = FACE_BOUND('',#480,.F.);
#480 = EDGE_LOOP('',(#481,#482,#483,#491));
#481 = ORIENTED_EDGE('',*,*,#182,.F.);
#482 = ORIENTED_EDGE('',*,*,#234,.T.);
#483 = ORIENTED_EDGE('',*,*,#484,.T.);
#484 = EDGE_CURVE('',#235,#485,#487,.T.);
#485 = VERTEX_POINT('',#486);
#486 = CARTESIAN_POINT('',(-36.5,-7.5,-17.5));
#487 = LINE('',#488,#489);
#488 = CARTESIAN_POINT('',(-36.5,-6.75,-17.5));
#489 = VECTOR('',#490,1.);
#490 = DIRECTION('',(6.518225175814E-16,1.,2.894673467952E-31));
#491 = ORIENTED_EDGE('',*,*,#492,.F.);
#492 = EDGE_CURVE('',#175,#485,#493,.T.);
#493 = LINE('',#494,#495);
#494 = CARTESIAN_POINT('',(-3.5,-7.5,-17.5));
#495 = VECTOR('',#496,1.);
#496 = DIRECTION('',(-1.,-3.284293275761E-47,-2.22044604925E-16));
#497 = PLANE('',#498);
#498 = AXIS2_PLACEMENT_3D('',#499,#500,#501);
#499 = CARTESIAN_POINT('',(-3.5,-9.,-17.5));
#500 = DIRECTION('',(2.22044604925E-16,1.479114197289E-31,-1.));
#501 = DIRECTION('',(-6.568586551523E-47,1.,1.479114197289E-31));
#502 = ADVANCED_FACE('',(#503),#514,.F.);
#503 = FACE_BOUND('',#504,.F.);
#504 = EDGE_LOOP('',(#505,#506,#507,#513));
#505 = ORIENTED_EDGE('',*,*,#174,.F.);
#506 = ORIENTED_EDGE('',*,*,#492,.T.);
#507 = ORIENTED_EDGE('',*,*,#508,.T.);
#508 = EDGE_CURVE('',#485,#377,#509,.T.);
#509 = LINE('',#510,#511);
#510 = CARTESIAN_POINT('',(-36.5,-7.5,-8.75));
#511 = VECTOR('',#512,1.);
#512 = DIRECTION('',(4.440892098501E-16,1.479114197289E-31,-1.));
#513 = ORIENTED_EDGE('',*,*,#384,.F.);
#514 = PLANE('',#515);
#515 = AXIS2_PLACEMENT_3D('',#516,#517,#518);
#516 = CARTESIAN_POINT('',(-3.5,-7.5,-17.5));
#517 = DIRECTION('',(6.568586551523E-47,-1.,-1.479114197289E-31));
#518 = DIRECTION('',(2.22044604925E-16,1.479114197289E-31,-1.));
#519 = ADVANCED_FACE('',(#520),#539,.T.);
#520 = FACE_BOUND('',#521,.F.);
#521 = EDGE_LOOP('',(#522,#530,#537,#538));
#522 = ORIENTED_EDGE('',*,*,#523,.F.);
#523 = EDGE_CURVE('',#524,#205,#526,.T.);
#524 = VERTEX_POINT('',#525);
#525 = CARTESIAN_POINT('',(-24.,-10.99,2.));
#526 = LINE('',#527,#528);
#527 = CARTESIAN_POINT('',(-24.,-10.99,2.));
#528 = VECTOR('',#529,1.);
#529 = DIRECTION('',(-0.833330118331,0.55277564516,-4.366612528441E-16)
  );
#530 = ORIENTED_EDGE('',*,*,#531,.T.);
#531 = EDGE_CURVE('',#524,#524,#532,.T.);
#532 = CIRCLE('',#533,3.5);
#533 = AXIS2_PLACEMENT_3D('',#534,#535,#536);
#534 = CARTESIAN_POINT('',(-20.5,-10.99,2.));
#535 = DIRECTION('',(3.14497615534E-32,-1.,-7.081856720638E-17));
#536 = DIRECTION('',(-1.,8.985646158113E-33,-5.709718412358E-16));
#537 = ORIENTED_EDGE('',*,*,#523,.T.);
#538 = ORIENTED_EDGE('',*,*,#204,.F.);
#539 = CONICAL_SURFACE('',#540,3.5,0.985104967206);
#540 = AXIS2_PLACEMENT_3D('',#541,#542,#543);
#541 = CARTESIAN_POINT('',(-20.5,-10.99,2.));
#542 = DIRECTION('',(-3.14497615534E-32,1.,7.081856720638E-17));
#543 = DIRECTION('',(-1.,8.985646158113E-33,-5.709718412358E-16));
#544 = ADVANCED_FACE('',(#545),#572,.T.);
#545 = FACE_BOUND('',#546,.T.);
#546 = EDGE_LOOP('',(#547,#555,#556,#557,#558,#566));
#547 = ORIENTED_EDGE('',*,*,#548,.T.);
#548 = EDGE_CURVE('',#549,#399,#551,.T.);
#549 = VERTEX_POINT('',#550);
#550 = CARTESIAN_POINT('',(24.5,6.439293542826E-15,-29.));
#551 = LINE('',#552,#553);
#552 = CARTESIAN_POINT('',(24.5,6.439293542826E-15,-29.));
#553 = VECTOR('',#554,1.);
#554 = DIRECTION('',(-4.440892098501E-16,-2.22044604925E-16,1.));
#555 = ORIENTED_EDGE('',*,*,#398,.T.);
#556 = ORIENTED_EDGE('',*,*,#215,.F.);
#557 = ORIENTED_EDGE('',*,*,#369,.F.);
#558 = ORIENTED_EDGE('',*,*,#559,.F.);
#559 = EDGE_CURVE('',#560,#362,#562,.T.);
#560 = VERTEX_POINT('',#561);
#561 = CARTESIAN_POINT('',(24.5,16.,-29.));
#562 = LINE('',#563,#564);
#563 = CARTESIAN_POINT('',(24.5,16.,-29.));
#564 = VECTOR('',#565,1.);
#565 = DIRECTION('',(4.440892098501E-16,2.465190328816E-31,-1.));
#566 = ORIENTED_EDGE('',*,*,#567,.T.);
#567 = EDGE_CURVE('',#560,#549,#568,.T.);
#568 = LINE('',#569,#570);
#569 = CARTESIAN_POINT('',(24.5,16.,-29.));
#570 = VECTOR('',#571,1.);
#571 = DIRECTION('',(1.094764425254E-46,-1.,-2.465190328816E-31));
#572 = PLANE('',#573);
#573 = AXIS2_PLACEMENT_3D('',#574,#575,#576);
#574 = CARTESIAN_POINT('',(24.5,-0.932432432432,-16.93243243243));
#575 = DIRECTION('',(1.,0.,4.440892098501E-16));
#576 = DIRECTION('',(9.860761315263E-32,1.,-2.22044604925E-16));
#577 = ADVANCED_FACE('',(#578),#584,.T.);
#578 = FACE_BOUND('',#579,.T.);
#579 = EDGE_LOOP('',(#580,#581,#582,#583));
#580 = ORIENTED_EDGE('',*,*,#242,.T.);
#581 = ORIENTED_EDGE('',*,*,#484,.T.);
#582 = ORIENTED_EDGE('',*,*,#508,.T.);
#583 = ORIENTED_EDGE('',*,*,#376,.T.);
#584 = PLANE('',#585);
#585 = AXIS2_PLACEMENT_3D('',#586,#587,#588);
#586 = CARTESIAN_POINT('',(-36.5,-4.5,-1.564068739843E-14));
#587 = DIRECTION('',(-1.,6.518225175814E-16,-4.440892098501E-16));
#588 = DIRECTION('',(-6.518225175814E-16,-1.,2.22044604925E-16));
#589 = ADVANCED_FACE('',(#590),#609,.F.);
#590 = FACE_BOUND('',#591,.T.);
#591 = EDGE_LOOP('',(#592,#600,#601,#602));
#592 = ORIENTED_EDGE('',*,*,#593,.T.);
#593 = EDGE_CURVE('',#594,#259,#596,.T.);
#594 = VERTEX_POINT('',#595);
#595 = CARTESIAN_POINT('',(4.5,-1.,1.998401444325E-15));
#596 = LINE('',#597,#598);
#597 = CARTESIAN_POINT('',(4.5,-1.,1.998401444325E-15));
#598 = VECTOR('',#599,1.);
#599 = DIRECTION('',(9.860761315263E-32,-1.,-2.22044604925E-16));
#600 = ORIENTED_EDGE('',*,*,#258,.T.);
#601 = ORIENTED_EDGE('',*,*,#593,.F.);
#602 = ORIENTED_EDGE('',*,*,#603,.F.);
#603 = EDGE_CURVE('',#594,#594,#604,.T.);
#604 = CIRCLE('',#605,9.5);
#605 = AXIS2_PLACEMENT_3D('',#606,#607,#608);
#606 = CARTESIAN_POINT('',(14.,-1.,6.217248937901E-15));
#607 = DIRECTION('',(9.860761315263E-32,-1.,-2.22044604925E-16));
#608 = DIRECTION('',(-1.,0.,-4.440892098501E-16));
#609 = CYLINDRICAL_SURFACE('',#610,9.5);
#610 = AXIS2_PLACEMENT_3D('',#611,#612,#613);
#611 = CARTESIAN_POINT('',(14.,-1.,6.217248937901E-15));
#612 = DIRECTION('',(-9.860761315263E-32,1.,2.22044604925E-16));
#613 = DIRECTION('',(-1.,0.,-4.440892098501E-16));
#614 = ADVANCED_FACE('',(#615),#640,.T.);
#615 = FACE_BOUND('',#616,.T.);
#616 = EDGE_LOOP('',(#617,#625,#626,#634));
#617 = ORIENTED_EDGE('',*,*,#618,.T.);
#618 = EDGE_CURVE('',#619,#270,#621,.T.);
#619 = VERTEX_POINT('',#620);
#620 = CARTESIAN_POINT('',(3.,-1.,-3.25));
#621 = LINE('',#622,#623);
#622 = CARTESIAN_POINT('',(3.,-1.,-3.25));
#623 = VECTOR('',#624,1.);
#624 = DIRECTION('',(9.860761315263E-32,-1.,-2.22044604925E-16));
#625 = ORIENTED_EDGE('',*,*,#269,.T.);
#626 = ORIENTED_EDGE('',*,*,#627,.F.);
#627 = EDGE_CURVE('',#628,#272,#630,.T.);
#628 = VERTEX_POINT('',#629);
#629 = CARTESIAN_POINT('',(3.,-1.,7.25));
#630 = LINE('',#631,#632);
#631 = CARTESIAN_POINT('',(3.,-1.,7.25));
#632 = VECTOR('',#633,1.);
#633 = DIRECTION('',(9.860761315263E-32,-1.,-2.22044604925E-16));
#634 = ORIENTED_EDGE('',*,*,#635,.F.);
#635 = EDGE_CURVE('',#619,#628,#636,.T.);
#636 = LINE('',#637,#638);
#637 = CARTESIAN_POINT('',(3.,-1.,-3.25));
#638 = VECTOR('',#639,1.);
#639 = DIRECTION('',(-4.440892098501E-16,-2.22044604925E-16,1.));
#640 = PLANE('',#641);
#641 = AXIS2_PLACEMENT_3D('',#642,#643,#644);
#642 = CARTESIAN_POINT('',(3.,-1.,-3.25));
#643 = DIRECTION('',(-1.,0.,-4.440892098501E-16));
#644 = DIRECTION('',(-4.440892098501E-16,-2.22044604925E-16,1.));
#645 = ADVANCED_FACE('',(#646),#664,.T.);
#646 = FACE_BOUND('',#647,.T.);
#647 = EDGE_LOOP('',(#648,#656,#657,#658));
#648 = ORIENTED_EDGE('',*,*,#649,.T.);
#649 = EDGE_CURVE('',#650,#280,#652,.T.);
#650 = VERTEX_POINT('',#651);
#651 = CARTESIAN_POINT('',(-3.,-1.,-3.25));
#652 = LINE('',#653,#654);
#653 = CARTESIAN_POINT('',(-3.,-1.,-3.25));
#654 = VECTOR('',#655,1.);
#655 = DIRECTION('',(9.860761315263E-32,-1.,-2.22044604925E-16));
#656 = ORIENTED_EDGE('',*,*,#279,.T.);
#657 = ORIENTED_EDGE('',*,*,#618,.F.);
#658 = ORIENTED_EDGE('',*,*,#659,.F.);
#659 = EDGE_CURVE('',#650,#619,#660,.T.);
#660 = LINE('',#661,#662);
#661 = CARTESIAN_POINT('',(-3.,-1.,-3.25));
#662 = VECTOR('',#663,1.);
#663 = DIRECTION('',(1.,0.,4.440892098501E-16));
#664 = PLANE('',#665);
#665 = AXIS2_PLACEMENT_3D('',#666,#667,#668);
#666 = CARTESIAN_POINT('',(-3.,-1.,-3.25));
#667 = DIRECTION('',(-4.440892098501E-16,-2.22044604925E-16,1.));
#668 = DIRECTION('',(1.,0.,4.440892098501E-16));
#669 = ADVANCED_FACE('',(#670),#688,.T.);
#670 = FACE_BOUND('',#671,.T.);
#671 = EDGE_LOOP('',(#672,#680,#681,#682));
#672 = ORIENTED_EDGE('',*,*,#673,.T.);
#673 = EDGE_CURVE('',#674,#288,#676,.T.);
#674 = VERTEX_POINT('',#675);
#675 = CARTESIAN_POINT('',(-3.,-1.,7.25));
#676 = LINE('',#677,#678);
#677 = CARTESIAN_POINT('',(-3.,-1.,7.25));
#678 = VECTOR('',#679,1.);
#679 = DIRECTION('',(9.860761315263E-32,-1.,-2.22044604925E-16));
#680 = ORIENTED_EDGE('',*,*,#287,.T.);
#681 = ORIENTED_EDGE('',*,*,#649,.F.);
#682 = ORIENTED_EDGE('',*,*,#683,.F.);
#683 = EDGE_CURVE('',#674,#650,#684,.T.);
#684 = LINE('',#685,#686);
#685 = CARTESIAN_POINT('',(-3.,-1.,7.25));
#686 = VECTOR('',#687,1.);
#687 = DIRECTION('',(4.440892098501E-16,2.22044604925E-16,-1.));
#688 = PLANE('',#689);
#689 = AXIS2_PLACEMENT_3D('',#690,#691,#692);
#690 = CARTESIAN_POINT('',(-3.,-1.,7.25));
#691 = DIRECTION('',(1.,0.,4.440892098501E-16));
#692 = DIRECTION('',(4.440892098501E-16,2.22044604925E-16,-1.));
#693 = ADVANCED_FACE('',(#694),#705,.T.);
#694 = FACE_BOUND('',#695,.T.);
#695 = EDGE_LOOP('',(#696,#697,#698,#699));
#696 = ORIENTED_EDGE('',*,*,#627,.T.);
#697 = ORIENTED_EDGE('',*,*,#295,.T.);
#698 = ORIENTED_EDGE('',*,*,#673,.F.);
#699 = ORIENTED_EDGE('',*,*,#700,.F.);
#700 = EDGE_CURVE('',#628,#674,#701,.T.);
#701 = LINE('',#702,#703);
#702 = CARTESIAN_POINT('',(3.,-1.,7.25));
#703 = VECTOR('',#704,1.);
#704 = DIRECTION('',(-1.,0.,-4.440892098501E-16));
#705 = PLANE('',#706);
#706 = AXIS2_PLACEMENT_3D('',#707,#708,#709);
#707 = CARTESIAN_POINT('',(3.,-1.,7.25));
#708 = DIRECTION('',(4.440892098501E-16,2.22044604925E-16,-1.));
#709 = DIRECTION('',(-1.,0.,-4.440892098501E-16));
#710 = ADVANCED_FACE('',(#711),#722,.T.);
#711 = FACE_BOUND('',#712,.T.);
#712 = EDGE_LOOP('',(#713,#714,#720,#721));
#713 = ORIENTED_EDGE('',*,*,#430,.T.);
#714 = ORIENTED_EDGE('',*,*,#715,.T.);
#715 = EDGE_CURVE('',#423,#322,#716,.T.);
#716 = LINE('',#717,#718);
#717 = CARTESIAN_POINT('',(-18.5,16.,-12.));
#718 = VECTOR('',#719,1.);
#719 = DIRECTION('',(4.440892098501E-16,9.860761315263E-32,-1.));
#720 = ORIENTED_EDGE('',*,*,#321,.F.);
#721 = ORIENTED_EDGE('',*,*,#454,.F.);
#722 = PLANE('',#723);
#723 = AXIS2_PLACEMENT_3D('',#724,#725,#726);
#724 = CARTESIAN_POINT('',(-18.5,8.,-12.5));
#725 = DIRECTION('',(-1.,-2.413663757711E-31,-1.531106729833E-15));
#726 = DIRECTION('',(1.531106729833E-15,-2.22044604925E-16,-1.));
#727 = ADVANCED_FACE('',(#728),#746,.F.);
#728 = FACE_BOUND('',#729,.F.);
#729 = EDGE_LOOP('',(#730,#738,#739,#740));
#730 = ORIENTED_EDGE('',*,*,#731,.T.);
#731 = EDGE_CURVE('',#732,#354,#734,.T.);
#732 = VERTEX_POINT('',#733);
#733 = CARTESIAN_POINT('',(-3.5,16.,-29.));
#734 = LINE('',#735,#736);
#735 = CARTESIAN_POINT('',(-3.5,16.,-29.));
#736 = VECTOR('',#737,1.);
#737 = DIRECTION('',(4.440892098501E-16,2.465190328816E-31,-1.));
#738 = ORIENTED_EDGE('',*,*,#361,.T.);
#739 = ORIENTED_EDGE('',*,*,#559,.F.);
#740 = ORIENTED_EDGE('',*,*,#741,.F.);
#741 = EDGE_CURVE('',#732,#560,#742,.T.);
#742 = LINE('',#743,#744);
#743 = CARTESIAN_POINT('',(-3.5,16.,-29.));
#744 = VECTOR('',#745,1.);
#745 = DIRECTION('',(1.,0.,4.440892098501E-16));
#746 = PLANE('',#747);
#747 = AXIS2_PLACEMENT_3D('',#748,#749,#750);
#748 = CARTESIAN_POINT('',(-3.5,16.,-29.));
#749 = DIRECTION('',(1.094764425254E-46,-1.,-2.465190328816E-31));
#750 = DIRECTION('',(1.,0.,4.440892098501E-16));
#751 = ADVANCED_FACE('',(#752),#763,.T.);
#752 = FACE_BOUND('',#753,.T.);
#753 = EDGE_LOOP('',(#754,#755,#761,#762));
#754 = ORIENTED_EDGE('',*,*,#422,.F.);
#755 = ORIENTED_EDGE('',*,*,#756,.F.);
#756 = EDGE_CURVE('',#330,#415,#757,.T.);
#757 = LINE('',#758,#759);
#758 = CARTESIAN_POINT('',(-16.5,16.,-8.5));
#759 = VECTOR('',#760,1.);
#760 = DIRECTION('',(-4.440892098501E-16,-2.465190328816E-31,1.));
#761 = ORIENTED_EDGE('',*,*,#329,.F.);
#762 = ORIENTED_EDGE('',*,*,#715,.F.);
#763 = PLANE('',#764);
#764 = AXIS2_PLACEMENT_3D('',#765,#766,#767);
#765 = CARTESIAN_POINT('',(-17.5,16.,-12.5));
#766 = DIRECTION('',(9.860761315263E-32,1.,-2.22044604925E-16));
#767 = DIRECTION('',(1.,0.,4.440892098501E-16));
#768 = ADVANCED_FACE('',(#769),#803,.T.);
#769 = FACE_BOUND('',#770,.T.);
#770 = EDGE_LOOP('',(#771,#781,#789,#795,#796,#797));
#771 = ORIENTED_EDGE('',*,*,#772,.F.);
#772 = EDGE_CURVE('',#773,#775,#777,.T.);
#773 = VERTEX_POINT('',#774);
#774 = CARTESIAN_POINT('',(-3.5,2.6645352591E-15,-12.));
#775 = VERTEX_POINT('',#776);
#776 = CARTESIAN_POINT('',(-3.5,-2.,-12.));
#777 = LINE('',#778,#779);
#778 = CARTESIAN_POINT('',(-3.5,-1.,-12.));
#779 = VECTOR('',#780,1.);
#780 = DIRECTION('',(9.860761315263E-32,-1.,-2.22044604925E-16));
#781 = ORIENTED_EDGE('',*,*,#782,.F.);
#782 = EDGE_CURVE('',#783,#773,#785,.T.);
#783 = VERTEX_POINT('',#784);
#784 = CARTESIAN_POINT('',(-3.5,6.439293542826E-15,-29.));
#785 = LINE('',#786,#787);
#786 = CARTESIAN_POINT('',(-3.5,6.439293542826E-15,-29.));
#787 = VECTOR('',#788,1.);
#788 = DIRECTION('',(-4.440892098501E-16,-2.22044604925E-16,1.));
#789 = ORIENTED_EDGE('',*,*,#790,.T.);
#790 = EDGE_CURVE('',#783,#732,#791,.T.);
#791 = LINE('',#792,#793);
#792 = CARTESIAN_POINT('',(-3.5,-9.,-29.));
#793 = VECTOR('',#794,1.);
#794 = DIRECTION('',(-1.094764425254E-46,1.,2.465190328816E-31));
#795 = ORIENTED_EDGE('',*,*,#731,.T.);
#796 = ORIENTED_EDGE('',*,*,#353,.F.);
#797 = ORIENTED_EDGE('',*,*,#798,.F.);
#798 = EDGE_CURVE('',#775,#346,#799,.T.);
#799 = LINE('',#800,#801);
#800 = CARTESIAN_POINT('',(-3.5,-2.,-12.));
#801 = VECTOR('',#802,1.);
#802 = DIRECTION('',(2.22044604925E-16,1.479114197289E-31,-1.));
#803 = PLANE('',#804);
#804 = AXIS2_PLACEMENT_3D('',#805,#806,#807);
#805 = CARTESIAN_POINT('',(-3.5,0.78,-27.22));
#806 = DIRECTION('',(-1.,0.,-4.440892098501E-16));
#807 = DIRECTION('',(-9.860761315263E-32,-1.,2.22044604925E-16));
#808 = ADVANCED_FACE('',(#809),#836,.T.);
#809 = FACE_BOUND('',#810,.T.);
#810 = EDGE_LOOP('',(#811,#819,#827,#833,#834,#835));
#811 = ORIENTED_EDGE('',*,*,#812,.T.);
#812 = EDGE_CURVE('',#407,#813,#815,.T.);
#813 = VERTEX_POINT('',#814);
#814 = CARTESIAN_POINT('',(-16.5,-1.449667394487E-15,-12.));
#815 = LINE('',#816,#817);
#816 = CARTESIAN_POINT('',(-16.5,3.879403123714E-15,12.));
#817 = VECTOR('',#818,1.);
#818 = DIRECTION('',(4.440892098501E-16,-2.22044604925E-16,-1.));
#819 = ORIENTED_EDGE('',*,*,#820,.T.);
#820 = EDGE_CURVE('',#813,#821,#823,.T.);
#821 = VERTEX_POINT('',#822);
#822 = CARTESIAN_POINT('',(-16.5,-2.,-12.));
#823 = LINE('',#824,#825);
#824 = CARTESIAN_POINT('',(-16.5,-3.552713678801E-15,-12.));
#825 = VECTOR('',#826,1.);
#826 = DIRECTION('',(2.189528850508E-47,-1.,-4.930380657631E-32));
#827 = ORIENTED_EDGE('',*,*,#828,.T.);
#828 = EDGE_CURVE('',#821,#338,#829,.T.);
#829 = LINE('',#830,#831);
#830 = CARTESIAN_POINT('',(-16.5,-2.,-12.));
#831 = VECTOR('',#832,1.);
#832 = DIRECTION('',(4.440892098501E-16,4.930380657631E-32,-1.));
#833 = ORIENTED_EDGE('',*,*,#337,.F.);
#834 = ORIENTED_EDGE('',*,*,#756,.T.);
#835 = ORIENTED_EDGE('',*,*,#414,.F.);
#836 = PLANE('',#837);
#837 = AXIS2_PLACEMENT_3D('',#838,#839,#840);
#838 = CARTESIAN_POINT('',(-16.5,7.358208955224,-12.85820895522));
#839 = DIRECTION('',(1.,1.480887810509E-15,1.037627377145E-15));
#840 = DIRECTION('',(-1.480887810509E-15,1.,-2.22044604925E-16));
#841 = ADVANCED_FACE('',(#842),#853,.F.);
#842 = FACE_BOUND('',#843,.F.);
#843 = EDGE_LOOP('',(#844,#845,#851,#852));
#844 = ORIENTED_EDGE('',*,*,#798,.F.);
#845 = ORIENTED_EDGE('',*,*,#846,.T.);
#846 = EDGE_CURVE('',#775,#821,#847,.T.);
#847 = LINE('',#848,#849);
#848 = CARTESIAN_POINT('',(-3.5,-2.,-12.));
#849 = VECTOR('',#850,1.);
#850 = DIRECTION('',(-1.,-3.284293275761E-47,-2.22044604925E-16));
#851 = ORIENTED_EDGE('',*,*,#828,.T.);
#852 = ORIENTED_EDGE('',*,*,#345,.F.);
#853 = PLANE('',#854);
#854 = AXIS2_PLACEMENT_3D('',#855,#856,#857);
#855 = CARTESIAN_POINT('',(-3.5,-2.,-12.));
#856 = DIRECTION('',(6.568586551523E-47,-1.,-1.479114197289E-31));
#857 = DIRECTION('',(2.22044604925E-16,1.479114197289E-31,-1.));
#858 = ADVANCED_FACE('',(#859,#877),#888,.T.);
#859 = FACE_BOUND('',#860,.T.);
#860 = EDGE_LOOP('',(#861,#867,#868,#874,#875,#876));
#861 = ORIENTED_EDGE('',*,*,#862,.F.);
#862 = EDGE_CURVE('',#783,#549,#863,.T.);
#863 = LINE('',#864,#865);
#864 = CARTESIAN_POINT('',(-3.5,6.439293542826E-15,-29.));
#865 = VECTOR('',#866,1.);
#866 = DIRECTION('',(1.,0.,4.440892098501E-16));
#867 = ORIENTED_EDGE('',*,*,#782,.T.);
#868 = ORIENTED_EDGE('',*,*,#869,.T.);
#869 = EDGE_CURVE('',#773,#813,#870,.T.);
#870 = LINE('',#871,#872);
#871 = CARTESIAN_POINT('',(-3.5,2.6645352591E-15,-12.));
#872 = VECTOR('',#873,1.);
#873 = DIRECTION('',(-1.,0.,-4.440892098501E-16));
#874 = ORIENTED_EDGE('',*,*,#812,.F.);
#875 = ORIENTED_EDGE('',*,*,#406,.F.);
#876 = ORIENTED_EDGE('',*,*,#548,.F.);
#877 = FACE_BOUND('',#878,.T.);
#878 = EDGE_LOOP('',(#879));
#879 = ORIENTED_EDGE('',*,*,#880,.T.);
#880 = EDGE_CURVE('',#881,#881,#883,.T.);
#881 = VERTEX_POINT('',#882);
#882 = CARTESIAN_POINT('',(-2.,0.,-8.881784197001E-16));
#883 = CIRCLE('',#884,2.);
#884 = AXIS2_PLACEMENT_3D('',#885,#886,#887);
#885 = CARTESIAN_POINT('',(0.,0.,0.));
#886 = DIRECTION('',(9.860761315263E-32,-1.,-2.22044604925E-16));
#887 = DIRECTION('',(-1.,0.,-4.440892098501E-16));
#888 = PLANE('',#889);
#889 = AXIS2_PLACEMENT_3D('',#890,#891,#892);
#890 = CARTESIAN_POINT('',(-3.092461739604,1.214867864613E-15,
    -5.471278462377));
#891 = DIRECTION('',(-1.970575965457E-46,1.,4.437342591868E-31));
#892 = DIRECTION('',(4.440892098501E-16,4.437342591868E-31,-1.));
#893 = ADVANCED_FACE('',(#894),#912,.F.);
#894 = FACE_BOUND('',#895,.F.);
#895 = EDGE_LOOP('',(#896,#905,#910,#911));
#896 = ORIENTED_EDGE('',*,*,#897,.F.);
#897 = EDGE_CURVE('',#898,#898,#900,.T.);
#898 = VERTEX_POINT('',#899);
#899 = CARTESIAN_POINT('',(-21.775,-11.,2.));
#900 = CIRCLE('',#901,1.275);
#901 = AXIS2_PLACEMENT_3D('',#902,#903,#904);
#902 = CARTESIAN_POINT('',(-20.5,-11.,2.));
#903 = DIRECTION('',(9.860761315263E-32,-1.,-2.22044604925E-16));
#904 = DIRECTION('',(-1.,0.,-4.440892098501E-16));
#905 = ORIENTED_EDGE('',*,*,#906,.F.);
#906 = EDGE_CURVE('',#466,#898,#907,.T.);
#907 = B_SPLINE_CURVE_WITH_KNOTS('',1,(#908,#909),.UNSPECIFIED.,.F.,.F.,
  (2,2),(-9.,2.),.PIECEWISE_BEZIER_KNOTS.);
#908 = CARTESIAN_POINT('',(-21.775,2.22044604925E-15,2.));
#909 = CARTESIAN_POINT('',(-21.775,-11.,2.));
#910 = ORIENTED_EDGE('',*,*,#465,.T.);
#911 = ORIENTED_EDGE('',*,*,#906,.T.);
#912 = CYLINDRICAL_SURFACE('',#913,1.275);
#913 = AXIS2_PLACEMENT_3D('',#914,#915,#916);
#914 = CARTESIAN_POINT('',(-20.5,-9.,2.));
#915 = DIRECTION('',(9.860761315263E-32,-1.,-2.22044604925E-16));
#916 = DIRECTION('',(-1.,0.,-4.440892098501E-16));
#917 = ADVANCED_FACE('',(#918),#937,.T.);
#918 = FACE_BOUND('',#919,.F.);
#919 = EDGE_LOOP('',(#920,#928,#935,#936));
#920 = ORIENTED_EDGE('',*,*,#921,.T.);
#921 = EDGE_CURVE('',#524,#922,#924,.T.);
#922 = VERTEX_POINT('',#923);
#923 = CARTESIAN_POINT('',(-24.,-11.,2.));
#924 = LINE('',#925,#926);
#925 = CARTESIAN_POINT('',(-24.,-9.,2.));
#926 = VECTOR('',#927,1.);
#927 = DIRECTION('',(9.860761315263E-32,-1.,-2.22044604925E-16));
#928 = ORIENTED_EDGE('',*,*,#929,.T.);
#929 = EDGE_CURVE('',#922,#922,#930,.T.);
#930 = CIRCLE('',#931,3.5);
#931 = AXIS2_PLACEMENT_3D('',#932,#933,#934);
#932 = CARTESIAN_POINT('',(-20.5,-11.,2.));
#933 = DIRECTION('',(9.860761315263E-32,-1.,-2.22044604925E-16));
#934 = DIRECTION('',(-1.,0.,-4.440892098501E-16));
#935 = ORIENTED_EDGE('',*,*,#921,.F.);
#936 = ORIENTED_EDGE('',*,*,#531,.F.);
#937 = CYLINDRICAL_SURFACE('',#938,3.5);
#938 = AXIS2_PLACEMENT_3D('',#939,#940,#941);
#939 = CARTESIAN_POINT('',(-20.5,-9.,2.));
#940 = DIRECTION('',(-9.860761315263E-32,1.,2.22044604925E-16));
#941 = DIRECTION('',(-1.,0.,-4.440892098501E-16));
#942 = ADVANCED_FACE('',(#943),#949,.F.);
#943 = FACE_BOUND('',#944,.F.);
#944 = EDGE_LOOP('',(#945,#946,#947,#948));
#945 = ORIENTED_EDGE('',*,*,#862,.F.);
#946 = ORIENTED_EDGE('',*,*,#790,.T.);
#947 = ORIENTED_EDGE('',*,*,#741,.T.);
#948 = ORIENTED_EDGE('',*,*,#567,.T.);
#949 = PLANE('',#950);
#950 = AXIS2_PLACEMENT_3D('',#951,#952,#953);
#951 = CARTESIAN_POINT('',(10.5,3.5,-29.));
#952 = DIRECTION('',(4.440892098501E-16,2.465190328816E-31,-1.));
#953 = DIRECTION('',(-1.,0.,-4.440892098501E-16));
#954 = ADVANCED_FACE('',(#955),#958,.F.);
#955 = FACE_BOUND('',#956,.F.);
#956 = EDGE_LOOP('',(#957));
#957 = ORIENTED_EDGE('',*,*,#603,.F.);
#958 = PLANE('',#959);
#959 = AXIS2_PLACEMENT_3D('',#960,#961,#962);
#960 = CARTESIAN_POINT('',(-3.092461739604,-1.,-5.471278462377));
#961 = DIRECTION('',(-1.970575965457E-46,1.,4.437342591868E-31));
#962 = DIRECTION('',(4.440892098501E-16,4.437342591868E-31,-1.));
#963 = ADVANCED_FACE('',(#964,#970),#981,.F.);
#964 = FACE_BOUND('',#965,.F.);
#965 = EDGE_LOOP('',(#966,#967,#968,#969));
#966 = ORIENTED_EDGE('',*,*,#635,.F.);
#967 = ORIENTED_EDGE('',*,*,#659,.F.);
#968 = ORIENTED_EDGE('',*,*,#683,.F.);
#969 = ORIENTED_EDGE('',*,*,#700,.F.);
#970 = FACE_BOUND('',#971,.F.);
#971 = EDGE_LOOP('',(#972));
#972 = ORIENTED_EDGE('',*,*,#973,.T.);
#973 = EDGE_CURVE('',#974,#974,#976,.T.);
#974 = VERTEX_POINT('',#975);
#975 = CARTESIAN_POINT('',(-2.,-1.,-1.110223024625E-15));
#976 = CIRCLE('',#977,2.);
#977 = AXIS2_PLACEMENT_3D('',#978,#979,#980);
#978 = CARTESIAN_POINT('',(9.860761315263E-32,-1.,-2.22044604925E-16));
#979 = DIRECTION('',(9.860761315263E-32,-1.,-2.22044604925E-16));
#980 = DIRECTION('',(-1.,0.,-4.440892098501E-16));
#981 = PLANE('',#982);
#982 = AXIS2_PLACEMENT_3D('',#983,#984,#985);
#983 = CARTESIAN_POINT('',(-3.092461739604,-1.,-5.471278462377));
#984 = DIRECTION('',(-1.970575965457E-46,1.,4.437342591868E-31));
#985 = DIRECTION('',(4.440892098501E-16,4.437342591868E-31,-1.));
#986 = ADVANCED_FACE('',(#987),#993,.T.);
#987 = FACE_BOUND('',#988,.T.);
#988 = EDGE_LOOP('',(#989,#990,#991,#992));
#989 = ORIENTED_EDGE('',*,*,#869,.F.);
#990 = ORIENTED_EDGE('',*,*,#772,.T.);
#991 = ORIENTED_EDGE('',*,*,#846,.T.);
#992 = ORIENTED_EDGE('',*,*,#820,.F.);
#993 = PLANE('',#994);
#994 = AXIS2_PLACEMENT_3D('',#995,#996,#997);
#995 = CARTESIAN_POINT('',(-19.31034482758,-0.775862068966,-12.));
#996 = DIRECTION('',(4.440892098501E-16,-2.22044604925E-16,-1.));
#997 = DIRECTION('',(-9.860761315263E-32,-1.,2.22044604925E-16));
#998 = ADVANCED_FACE('',(#999),#1010,.F.);
#999 = FACE_BOUND('',#1000,.T.);
#1000 = EDGE_LOOP('',(#1001,#1007,#1008,#1009));
#1001 = ORIENTED_EDGE('',*,*,#1002,.T.);
#1002 = EDGE_CURVE('',#881,#974,#1003,.T.);
#1003 = LINE('',#1004,#1005);
#1004 = CARTESIAN_POINT('',(-2.,0.,-8.881784197001E-16));
#1005 = VECTOR('',#1006,1.);
#1006 = DIRECTION('',(9.860761315263E-32,-1.,-2.22044604925E-16));
#1007 = ORIENTED_EDGE('',*,*,#973,.T.);
#1008 = ORIENTED_EDGE('',*,*,#1002,.F.);
#1009 = ORIENTED_EDGE('',*,*,#880,.F.);
#1010 = CYLINDRICAL_SURFACE('',#1011,2.);
#1011 = AXIS2_PLACEMENT_3D('',#1012,#1013,#1014);
#1012 = CARTESIAN_POINT('',(0.,0.,0.));
#1013 = DIRECTION('',(-9.860761315263E-32,1.,2.22044604925E-16));
#1014 = DIRECTION('',(-1.,0.,-4.440892098501E-16));
#1015 = ADVANCED_FACE('',(#1016,#1019),#1022,.F.);
#1016 = FACE_BOUND('',#1017,.T.);
#1017 = EDGE_LOOP('',(#1018));
#1018 = ORIENTED_EDGE('',*,*,#929,.T.);
#1019 = FACE_BOUND('',#1020,.F.);
#1020 = EDGE_LOOP('',(#1021));
#1021 = ORIENTED_EDGE('',*,*,#897,.T.);
#1022 = PLANE('',#1023);
#1023 = AXIS2_PLACEMENT_3D('',#1024,#1025,#1026);
#1024 = CARTESIAN_POINT('',(-20.5,-11.,2.));
#1025 = DIRECTION('',(-1.241276956747E-31,1.,2.795107219935E-16));
#1026 = DIRECTION('',(4.440892098501E-16,2.795107219935E-16,-1.));
#1027 = ( GEOMETRIC_REPRESENTATION_CONTEXT(3) 
GLOBAL_UNCERTAINTY_ASSIGNED_CONTEXT((#1031)) 
GLOBAL_UNIT_ASSIGNED_CONTEXT((#1028,#1029,#1030)) REPRESENTATION_CONTEXT
('Context #1','3D Context with UNIT and UNCERTAINTY') );
#1028 = ( LENGTH_UNIT() NAMED_UNIT(*) SI_UNIT(.MILLI.,.METRE.) );
#1029 = ( NAMED_UNIT(*) PLANE_ANGLE_UNIT() SI_UNIT($,.RADIAN.) );
#1030 = ( NAMED_UNIT(*) SI_UNIT($,.STERADIAN.) SOLID_ANGLE_UNIT() );
#1031 = UNCERTAINTY_MEASURE_WITH_UNIT(LENGTH_MEASURE(5.E-06),#1028,
  'distance_accuracy_value','confusion accuracy');
#1032 = PRODUCT_RELATED_PRODUCT_CATEGORY('part',$,(#7));
#1033 = MECHANICAL_DESIGN_GEOMETRIC_PRESENTATION_REPRESENTATION('',(
    #1034),#1027);
#1034 = STYLED_ITEM('color',(#1035),#15);
#1035 = PRESENTATION_STYLE_ASSIGNMENT((#1036,#1042));
#1036 = SURFACE_STYLE_USAGE(.BOTH.,#1037);
#1037 = SURFACE_SIDE_STYLE('',(#1038));
#1038 = SURFACE_STYLE_FILL_AREA(#1039);
#1039 = FILL_AREA_STYLE('',(#1040));
#1040 = FILL_AREA_STYLE_COLOUR('',#1041);
#1041 = COLOUR_RGB('',0.447059003357,0.474510015008,0.501960993452);
#1042 = CURVE_STYLE('',#1043,POSITIVE_LENGTH_MEASURE(0.1),#1044);
#1043 = DRAUGHTING_PRE_DEFINED_CURVE_FONT('continuous');
#1044 = COLOUR_RGB('',9.803921802644E-02,9.803921802644E-02,
  9.803921802644E-02);
ENDSEC;
END-ISO-10303-21;
